<mxfile host="app.diagrams.net" agent="Mozilla/5.0 (Windows NT 10.0; Win64; x64) AppleWebKit/537.36 (KHTML, like Gecko) Chrome/139.0.0.0 Safari/537.36" version="28.1.0">
  <diagram name="PÃ¡gina-1" id="G6JM9k08m3cE5585uVwL">
    <mxGraphModel dx="1042" dy="527" grid="1" gridSize="10" guides="1" tooltips="1" connect="1" arrows="1" fold="1" page="1" pageScale="1" pageWidth="827" pageHeight="1169" math="0" shadow="0">
      <root>
        <mxCell id="0" />
        <mxCell id="1" parent="0" />
        <mxCell id="qbday1i0iJEvqqkl0eBC-9" value="AWS Cloud" style="points=[[0,0],[0.25,0],[0.5,0],[0.75,0],[1,0],[1,0.25],[1,0.5],[1,0.75],[1,1],[0.75,1],[0.5,1],[0.25,1],[0,1],[0,0.75],[0,0.5],[0,0.25]];outlineConnect=0;gradientColor=none;html=1;whiteSpace=wrap;fontSize=12;fontStyle=0;container=1;pointerEvents=0;collapsible=0;recursiveResize=0;shape=mxgraph.aws4.group;grIcon=mxgraph.aws4.group_aws_cloud;strokeColor=#232F3E;fillColor=none;verticalAlign=top;align=left;spacingLeft=30;fontColor=#232F3E;dashed=0;" parent="1" vertex="1">
          <mxGeometry x="40" y="50" width="761" height="1100" as="geometry" />
        </mxCell>
        <mxCell id="qbday1i0iJEvqqkl0eBC-7" value="Region us-east-1" style="points=[[0,0],[0.25,0],[0.5,0],[0.75,0],[1,0],[1,0.25],[1,0.5],[1,0.75],[1,1],[0.75,1],[0.5,1],[0.25,1],[0,1],[0,0.75],[0,0.5],[0,0.25]];outlineConnect=0;gradientColor=none;html=1;whiteSpace=wrap;fontSize=12;fontStyle=0;container=1;pointerEvents=0;collapsible=0;recursiveResize=0;shape=mxgraph.aws4.group;grIcon=mxgraph.aws4.group_region;strokeColor=#00A4A6;fillColor=none;verticalAlign=top;align=left;spacingLeft=30;fontColor=#147EBA;dashed=1;" parent="qbday1i0iJEvqqkl0eBC-9" vertex="1">
          <mxGeometry x="10.5" y="40" width="740" height="1050" as="geometry" />
        </mxCell>
        <mxCell id="qbday1i0iJEvqqkl0eBC-1" value="VPC 10.0.0.0/16" style="points=[[0,0],[0.25,0],[0.5,0],[0.75,0],[1,0],[1,0.25],[1,0.5],[1,0.75],[1,1],[0.75,1],[0.5,1],[0.25,1],[0,1],[0,0.75],[0,0.5],[0,0.25]];outlineConnect=0;gradientColor=none;html=1;whiteSpace=wrap;fontSize=12;fontStyle=0;container=1;pointerEvents=0;collapsible=0;recursiveResize=0;shape=mxgraph.aws4.group;grIcon=mxgraph.aws4.group_vpc2;strokeColor=#8C4FFF;fillColor=none;verticalAlign=top;align=left;spacingLeft=30;fontColor=#AAB7B8;dashed=0;" parent="qbday1i0iJEvqqkl0eBC-7" vertex="1">
          <mxGeometry x="10" y="30" width="720" height="1010" as="geometry" />
        </mxCell>
        <mxCell id="qbday1i0iJEvqqkl0eBC-3" value="Availability zone us-east-1a" style="sketch=0;outlineConnect=0;gradientColor=none;html=1;whiteSpace=wrap;fontSize=12;fontStyle=0;shape=mxgraph.aws4.group;grIcon=mxgraph.aws4.group_availability_zone;strokeColor=#545B64;fillColor=none;verticalAlign=top;align=left;spacingLeft=30;fontColor=#545B64;dashed=1;" parent="qbday1i0iJEvqqkl0eBC-1" vertex="1">
          <mxGeometry x="10" y="60" width="200" height="900" as="geometry" />
        </mxCell>
        <mxCell id="qbday1i0iJEvqqkl0eBC-4" value="Availability zone us-east-1b" style="sketch=0;outlineConnect=0;gradientColor=none;html=1;whiteSpace=wrap;fontSize=12;fontStyle=0;shape=mxgraph.aws4.group;grIcon=mxgraph.aws4.group_availability_zone;strokeColor=#545B64;fillColor=none;verticalAlign=top;align=left;spacingLeft=30;fontColor=#545B64;dashed=1;" parent="qbday1i0iJEvqqkl0eBC-1" vertex="1">
          <mxGeometry x="511" y="60" width="200" height="680" as="geometry" />
        </mxCell>
        <mxCell id="2n7tNxbJqgsIA7ErDQBW-2" style="edgeStyle=orthogonalEdgeStyle;rounded=0;orthogonalLoop=1;jettySize=auto;html=1;" parent="qbday1i0iJEvqqkl0eBC-1" source="qbday1i0iJEvqqkl0eBC-21" target="2n7tNxbJqgsIA7ErDQBW-1" edge="1">
          <mxGeometry relative="1" as="geometry" />
        </mxCell>
        <mxCell id="qbday1i0iJEvqqkl0eBC-21" value="Amazon S3" style="sketch=0;outlineConnect=0;fontColor=#232F3E;gradientColor=none;strokeColor=#ffffff;fillColor=#232F3E;dashed=0;verticalLabelPosition=middle;verticalAlign=bottom;align=center;html=1;whiteSpace=wrap;fontSize=10;fontStyle=1;spacing=3;shape=mxgraph.aws4.productIcon;prIcon=mxgraph.aws4.s3;" parent="qbday1i0iJEvqqkl0eBC-1" vertex="1">
          <mxGeometry x="399.5" y="760" width="80" height="100" as="geometry" />
        </mxCell>
        <mxCell id="g6kpnb7D7X9jS-AZbIGW-10" style="edgeStyle=orthogonalEdgeStyle;rounded=0;orthogonalLoop=1;jettySize=auto;html=1;startArrow=classic;startFill=1;" parent="qbday1i0iJEvqqkl0eBC-1" source="qbday1i0iJEvqqkl0eBC-22" target="qbday1i0iJEvqqkl0eBC-48" edge="1">
          <mxGeometry relative="1" as="geometry">
            <Array as="points">
              <mxPoint x="371" y="590" />
              <mxPoint x="371" y="590" />
            </Array>
          </mxGeometry>
        </mxCell>
        <mxCell id="qbday1i0iJEvqqkl0eBC-22" value="Private subnet&lt;div&gt;10.0.128.0/20&lt;/div&gt;" style="points=[[0,0],[0.25,0],[0.5,0],[0.75,0],[1,0],[1,0.25],[1,0.5],[1,0.75],[1,1],[0.75,1],[0.5,1],[0.25,1],[0,1],[0,0.75],[0,0.5],[0,0.25]];outlineConnect=0;gradientColor=none;html=1;whiteSpace=wrap;fontSize=12;fontStyle=0;container=1;pointerEvents=0;collapsible=0;recursiveResize=0;shape=mxgraph.aws4.group;grIcon=mxgraph.aws4.group_security_group;grStroke=0;strokeColor=#00A4A6;fillColor=#E6F6F7;verticalAlign=top;align=left;spacingLeft=30;fontColor=#147EBA;dashed=0;" parent="qbday1i0iJEvqqkl0eBC-1" vertex="1">
          <mxGeometry x="29.5" y="570" width="160" height="380" as="geometry" />
        </mxCell>
        <mxCell id="GcxoR1iasbJ3VfstspqE-1" value="ASG notifications" style="sketch=0;points=[[0,0,0],[0.25,0,0],[0.5,0,0],[0.75,0,0],[1,0,0],[0,1,0],[0.25,1,0],[0.5,1,0],[0.75,1,0],[1,1,0],[0,0.25,0],[0,0.5,0],[0,0.75,0],[1,0.25,0],[1,0.5,0],[1,0.75,0]];outlineConnect=0;fontColor=#232F3E;fillColor=#ED7100;strokeColor=#ffffff;dashed=0;verticalLabelPosition=bottom;verticalAlign=top;align=center;html=1;fontSize=12;fontStyle=0;aspect=fixed;shape=mxgraph.aws4.resourceIcon;resIcon=mxgraph.aws4.lambda;" vertex="1" parent="qbday1i0iJEvqqkl0eBC-22">
          <mxGeometry x="43" y="152" width="78" height="78" as="geometry" />
        </mxCell>
        <mxCell id="qbday1i0iJEvqqkl0eBC-48" value="Private subnet&lt;div&gt;10.0.144.0/20&lt;/div&gt;" style="points=[[0,0],[0.25,0],[0.5,0],[0.75,0],[1,0],[1,0.25],[1,0.5],[1,0.75],[1,1],[0.75,1],[0.5,1],[0.25,1],[0,1],[0,0.75],[0,0.5],[0,0.25]];outlineConnect=0;gradientColor=none;html=1;whiteSpace=wrap;fontSize=12;fontStyle=0;container=1;pointerEvents=0;collapsible=0;recursiveResize=0;shape=mxgraph.aws4.group;grIcon=mxgraph.aws4.group_security_group;grStroke=0;strokeColor=#00A4A6;fillColor=#E6F6F7;verticalAlign=top;align=left;spacingLeft=30;fontColor=#147EBA;dashed=0;" parent="qbday1i0iJEvqqkl0eBC-1" vertex="1">
          <mxGeometry x="531" y="570" width="160" height="160" as="geometry" />
        </mxCell>
        <mxCell id="g6kpnb7D7X9jS-AZbIGW-8" style="edgeStyle=orthogonalEdgeStyle;rounded=0;orthogonalLoop=1;jettySize=auto;html=1;startArrow=classic;startFill=1;" parent="qbday1i0iJEvqqkl0eBC-1" edge="1">
          <mxGeometry relative="1" as="geometry">
            <mxPoint x="189.5" y="140" as="sourcePoint" />
            <mxPoint x="530.5" y="140" as="targetPoint" />
          </mxGeometry>
        </mxCell>
        <mxCell id="qbday1i0iJEvqqkl0eBC-15" value="Public subnet&amp;nbsp;&lt;div&gt;10.0.0.0/20&lt;/div&gt;" style="points=[[0,0],[0.25,0],[0.5,0],[0.75,0],[1,0],[1,0.25],[1,0.5],[1,0.75],[1,1],[0.75,1],[0.5,1],[0.25,1],[0,1],[0,0.75],[0,0.5],[0,0.25]];outlineConnect=0;gradientColor=none;html=1;whiteSpace=wrap;fontSize=12;fontStyle=0;container=1;pointerEvents=0;collapsible=0;recursiveResize=0;shape=mxgraph.aws4.group;grIcon=mxgraph.aws4.group_security_group;grStroke=0;strokeColor=#7AA116;fillColor=#F2F6E8;verticalAlign=top;align=left;spacingLeft=30;fontColor=#248814;dashed=0;" parent="qbday1i0iJEvqqkl0eBC-1" vertex="1">
          <mxGeometry x="30" y="90" width="160" height="470" as="geometry" />
        </mxCell>
        <mxCell id="yRWJ_-X60Az36Gfh8IAf-4" value="" style="points=[];aspect=fixed;html=1;align=center;shadow=0;dashed=0;fillColor=#FF6A00;strokeColor=none;shape=mxgraph.alibaba_cloud.eip_elastic_ip_address;" parent="qbday1i0iJEvqqkl0eBC-15" vertex="1">
          <mxGeometry x="98.1" y="70" width="47.400000000000006" height="46.5" as="geometry" />
        </mxCell>
        <mxCell id="g6kpnb7D7X9jS-AZbIGW-6" style="edgeStyle=orthogonalEdgeStyle;rounded=0;orthogonalLoop=1;jettySize=auto;html=1;entryX=0.5;entryY=0;entryDx=0;entryDy=0;startArrow=classic;startFill=1;" parent="qbday1i0iJEvqqkl0eBC-1" source="qbday1i0iJEvqqkl0eBC-25" target="qbday1i0iJEvqqkl0eBC-23" edge="1">
          <mxGeometry relative="1" as="geometry">
            <Array as="points">
              <mxPoint x="360" y="220" />
            </Array>
          </mxGeometry>
        </mxCell>
        <mxCell id="qbday1i0iJEvqqkl0eBC-25" value="Elastic Load Balancing" style="sketch=0;outlineConnect=0;fontColor=#232F3E;gradientColor=none;strokeColor=#ffffff;fillColor=#232F3E;dashed=0;verticalLabelPosition=middle;verticalAlign=bottom;align=center;html=1;whiteSpace=wrap;fontSize=10;fontStyle=1;spacing=3;shape=mxgraph.aws4.productIcon;prIcon=mxgraph.aws4.elastic_load_balancing;" parent="qbday1i0iJEvqqkl0eBC-1" vertex="1">
          <mxGeometry x="399.5" y="180" width="80" height="110" as="geometry" />
        </mxCell>
        <mxCell id="qbday1i0iJEvqqkl0eBC-52" value="Public subnet&lt;div&gt;10.0.16.0/20&lt;/div&gt;" style="points=[[0,0],[0.25,0],[0.5,0],[0.75,0],[1,0],[1,0.25],[1,0.5],[1,0.75],[1,1],[0.75,1],[0.5,1],[0.25,1],[0,1],[0,0.75],[0,0.5],[0,0.25]];outlineConnect=0;gradientColor=none;html=1;whiteSpace=wrap;fontSize=12;fontStyle=0;container=1;pointerEvents=0;collapsible=0;recursiveResize=0;shape=mxgraph.aws4.group;grIcon=mxgraph.aws4.group_security_group;grStroke=0;strokeColor=#7AA116;fillColor=#F2F6E8;verticalAlign=top;align=left;spacingLeft=30;fontColor=#248814;dashed=0;" parent="qbday1i0iJEvqqkl0eBC-1" vertex="1">
          <mxGeometry x="531" y="90" width="160" height="470" as="geometry" />
        </mxCell>
        <mxCell id="qbday1i0iJEvqqkl0eBC-23" value="Auto Scaling group" style="points=[[0,0],[0.25,0],[0.5,0],[0.75,0],[1,0],[1,0.25],[1,0.5],[1,0.75],[1,1],[0.75,1],[0.5,1],[0.25,1],[0,1],[0,0.75],[0,0.5],[0,0.25]];outlineConnect=0;gradientColor=none;html=1;whiteSpace=wrap;fontSize=12;fontStyle=0;container=1;pointerEvents=0;collapsible=0;recursiveResize=0;shape=mxgraph.aws4.groupCenter;grIcon=mxgraph.aws4.group_auto_scaling_group;grStroke=1;strokeColor=#D86613;fillColor=none;verticalAlign=top;align=center;fontColor=#D86613;dashed=1;spacingTop=25;" parent="qbday1i0iJEvqqkl0eBC-1" vertex="1">
          <mxGeometry x="20" y="330" width="680" height="220" as="geometry" />
        </mxCell>
        <mxCell id="qbday1i0iJEvqqkl0eBC-24" value="EC2 Launch Template" style="sketch=0;outlineConnect=0;fontColor=#232F3E;gradientColor=none;fillColor=#E7157B;strokeColor=none;dashed=0;verticalLabelPosition=bottom;verticalAlign=top;align=center;html=1;fontSize=12;fontStyle=0;aspect=fixed;pointerEvents=1;shape=mxgraph.aws4.template;" parent="qbday1i0iJEvqqkl0eBC-23" vertex="1">
          <mxGeometry x="312.49999999999994" y="139" width="41.67" height="50" as="geometry" />
        </mxCell>
        <mxCell id="qbday1i0iJEvqqkl0eBC-27" value="&lt;div&gt;Target Group&lt;/div&gt;" style="fillColor=none;strokeColor=#DD3522;verticalAlign=top;fontStyle=0;fontColor=#DD3522;whiteSpace=wrap;html=1;" parent="qbday1i0iJEvqqkl0eBC-23" vertex="1">
          <mxGeometry x="340.5" y="51" width="130" height="30" as="geometry" />
        </mxCell>
        <mxCell id="qbday1i0iJEvqqkl0eBC-57" value="" style="sketch=0;points=[[0,0,0],[0.25,0,0],[0.5,0,0],[0.75,0,0],[1,0,0],[0,1,0],[0.25,1,0],[0.5,1,0],[0.75,1,0],[1,1,0],[0,0.25,0],[0,0.5,0],[0,0.75,0],[1,0.25,0],[1,0.5,0],[1,0.75,0]];outlineConnect=0;fontColor=#232F3E;fillColor=#ED7100;strokeColor=#ffffff;dashed=0;verticalLabelPosition=bottom;verticalAlign=top;align=center;html=1;fontSize=12;fontStyle=0;aspect=fixed;shape=mxgraph.aws4.resourceIcon;resIcon=mxgraph.aws4.ec2;" parent="qbday1i0iJEvqqkl0eBC-23" vertex="1">
          <mxGeometry x="552" y="20" width="78" height="78" as="geometry" />
        </mxCell>
        <mxCell id="qbday1i0iJEvqqkl0eBC-28" value="Amazon EC2" style="sketch=0;outlineConnect=0;fontColor=#232F3E;gradientColor=none;strokeColor=#ffffff;fillColor=#232F3E;dashed=0;verticalLabelPosition=middle;verticalAlign=bottom;align=center;html=1;whiteSpace=wrap;fontSize=10;fontStyle=1;spacing=3;shape=mxgraph.aws4.productIcon;prIcon=mxgraph.aws4.ec2;" parent="qbday1i0iJEvqqkl0eBC-23" vertex="1">
          <mxGeometry x="50.5" y="16" width="80" height="100" as="geometry" />
        </mxCell>
        <mxCell id="qbday1i0iJEvqqkl0eBC-58" value="" style="sketch=0;points=[[0,0,0],[0.25,0,0],[0.5,0,0],[0.75,0,0],[1,0,0],[0,1,0],[0.25,1,0],[0.5,1,0],[0.75,1,0],[1,1,0],[0,0.25,0],[0,0.5,0],[0,0.75,0],[1,0.25,0],[1,0.5,0],[1,0.75,0]];outlineConnect=0;fontColor=#232F3E;fillColor=#ED7100;strokeColor=#ffffff;dashed=0;verticalLabelPosition=bottom;verticalAlign=top;align=center;html=1;fontSize=12;fontStyle=0;aspect=fixed;shape=mxgraph.aws4.resourceIcon;resIcon=mxgraph.aws4.ec2;" parent="qbday1i0iJEvqqkl0eBC-23" vertex="1">
          <mxGeometry x="552" y="125" width="78" height="78" as="geometry" />
        </mxCell>
        <mxCell id="qbday1i0iJEvqqkl0eBC-55" value="" style="sketch=0;points=[[0,0,0],[0.25,0,0],[0.5,0,0],[0.75,0,0],[1,0,0],[0,1,0],[0.25,1,0],[0.5,1,0],[0.75,1,0],[1,1,0],[0,0.25,0],[0,0.5,0],[0,0.75,0],[1,0.25,0],[1,0.5,0],[1,0.75,0]];outlineConnect=0;fontColor=#232F3E;fillColor=#ED7100;strokeColor=#ffffff;dashed=0;verticalLabelPosition=bottom;verticalAlign=top;align=center;html=1;fontSize=12;fontStyle=0;aspect=fixed;shape=mxgraph.aws4.resourceIcon;resIcon=mxgraph.aws4.ec2;" parent="qbday1i0iJEvqqkl0eBC-23" vertex="1">
          <mxGeometry x="49.5" y="125" width="78" height="78" as="geometry" />
        </mxCell>
        <mxCell id="g6kpnb7D7X9jS-AZbIGW-14" value="EC2 Security group" style="fillColor=none;strokeColor=#DD3522;verticalAlign=top;fontStyle=0;fontColor=#DD3522;whiteSpace=wrap;html=1;" parent="qbday1i0iJEvqqkl0eBC-23" vertex="1">
          <mxGeometry x="340.5" y="86" width="130" height="30" as="geometry" />
        </mxCell>
        <mxCell id="g6kpnb7D7X9jS-AZbIGW-9" style="edgeStyle=orthogonalEdgeStyle;rounded=0;orthogonalLoop=1;jettySize=auto;html=1;startArrow=classic;startFill=1;" parent="qbday1i0iJEvqqkl0eBC-1" source="g6kpnb7D7X9jS-AZbIGW-2" target="qbday1i0iJEvqqkl0eBC-52" edge="1">
          <mxGeometry relative="1" as="geometry">
            <Array as="points">
              <mxPoint x="380" y="44" />
              <mxPoint x="380" y="140" />
            </Array>
          </mxGeometry>
        </mxCell>
        <mxCell id="g6kpnb7D7X9jS-AZbIGW-2" value="igw" style="outlineConnect=0;dashed=0;verticalLabelPosition=bottom;verticalAlign=top;align=center;html=1;shape=mxgraph.aws3.internet_gateway;fillColor=#F58534;gradientColor=none;" parent="qbday1i0iJEvqqkl0eBC-1" vertex="1">
          <mxGeometry x="410.5" y="8" width="69" height="72" as="geometry" />
        </mxCell>
        <mxCell id="g6kpnb7D7X9jS-AZbIGW-11" style="edgeStyle=orthogonalEdgeStyle;rounded=0;orthogonalLoop=1;jettySize=auto;html=1;startArrow=classic;startFill=1;" parent="qbday1i0iJEvqqkl0eBC-1" source="g6kpnb7D7X9jS-AZbIGW-3" target="qbday1i0iJEvqqkl0eBC-22" edge="1">
          <mxGeometry relative="1" as="geometry">
            <Array as="points">
              <mxPoint x="230" y="220" />
              <mxPoint x="230" y="590" />
            </Array>
          </mxGeometry>
        </mxCell>
        <mxCell id="g6kpnb7D7X9jS-AZbIGW-3" value="nat" style="outlineConnect=0;dashed=0;verticalLabelPosition=bottom;verticalAlign=top;align=center;html=1;shape=mxgraph.aws3.vpc_nat_gateway;fillColor=#F58534;gradientColor=none;" parent="qbday1i0iJEvqqkl0eBC-1" vertex="1">
          <mxGeometry x="255" y="180" width="69" height="72" as="geometry" />
        </mxCell>
        <mxCell id="qbday1i0iJEvqqkl0eBC-42" value="Amazon RDS" style="sketch=0;outlineConnect=0;fontColor=#232F3E;gradientColor=none;strokeColor=#ffffff;fillColor=#232F3E;dashed=0;verticalLabelPosition=middle;verticalAlign=bottom;align=center;html=1;whiteSpace=wrap;fontSize=10;fontStyle=1;spacing=3;shape=mxgraph.aws4.productIcon;prIcon=mxgraph.aws4.rds;" parent="qbday1i0iJEvqqkl0eBC-1" vertex="1">
          <mxGeometry x="67.5" y="610" width="80" height="100" as="geometry" />
        </mxCell>
        <mxCell id="qbday1i0iJEvqqkl0eBC-49" value="RDS Replica" style="sketch=0;outlineConnect=0;fontColor=#232F3E;gradientColor=none;strokeColor=#ffffff;fillColor=#232F3E;dashed=0;verticalLabelPosition=middle;verticalAlign=bottom;align=center;html=1;whiteSpace=wrap;fontSize=10;fontStyle=1;spacing=3;shape=mxgraph.aws4.productIcon;prIcon=mxgraph.aws4.rds;" parent="qbday1i0iJEvqqkl0eBC-1" vertex="1">
          <mxGeometry x="572" y="610" width="80" height="100" as="geometry" />
        </mxCell>
        <mxCell id="g6kpnb7D7X9jS-AZbIGW-12" style="edgeStyle=orthogonalEdgeStyle;rounded=0;orthogonalLoop=1;jettySize=auto;html=1;startArrow=classic;startFill=1;" parent="qbday1i0iJEvqqkl0eBC-1" source="qbday1i0iJEvqqkl0eBC-24" target="qbday1i0iJEvqqkl0eBC-21" edge="1">
          <mxGeometry relative="1" as="geometry" />
        </mxCell>
        <mxCell id="g6kpnb7D7X9jS-AZbIGW-13" value="Amazon SNS" style="sketch=0;outlineConnect=0;fontColor=#232F3E;gradientColor=none;strokeColor=#ffffff;fillColor=#232F3E;dashed=0;verticalLabelPosition=middle;verticalAlign=bottom;align=center;html=1;whiteSpace=wrap;fontSize=10;fontStyle=1;spacing=3;shape=mxgraph.aws4.productIcon;prIcon=mxgraph.aws4.sns;" parent="qbday1i0iJEvqqkl0eBC-1" vertex="1">
          <mxGeometry x="399.5" y="880" width="80" height="100" as="geometry" />
        </mxCell>
        <mxCell id="g6kpnb7D7X9jS-AZbIGW-52" style="edgeStyle=orthogonalEdgeStyle;rounded=0;orthogonalLoop=1;jettySize=auto;html=1;" parent="qbday1i0iJEvqqkl0eBC-1" source="g6kpnb7D7X9jS-AZbIGW-46" target="qbday1i0iJEvqqkl0eBC-42" edge="1">
          <mxGeometry relative="1" as="geometry" />
        </mxCell>
        <mxCell id="g6kpnb7D7X9jS-AZbIGW-46" value="RDS Security group" style="fillColor=none;strokeColor=#DD3522;verticalAlign=top;fontStyle=0;fontColor=#DD3522;whiteSpace=wrap;html=1;" parent="qbday1i0iJEvqqkl0eBC-1" vertex="1">
          <mxGeometry x="234.5" y="620" width="130" height="30" as="geometry" />
        </mxCell>
        <mxCell id="g6kpnb7D7X9jS-AZbIGW-53" style="edgeStyle=orthogonalEdgeStyle;rounded=0;orthogonalLoop=1;jettySize=auto;html=1;" parent="qbday1i0iJEvqqkl0eBC-1" source="g6kpnb7D7X9jS-AZbIGW-51" target="qbday1i0iJEvqqkl0eBC-42" edge="1">
          <mxGeometry relative="1" as="geometry" />
        </mxCell>
        <mxCell id="g6kpnb7D7X9jS-AZbIGW-56" style="edgeStyle=orthogonalEdgeStyle;rounded=0;orthogonalLoop=1;jettySize=auto;html=1;" parent="qbday1i0iJEvqqkl0eBC-1" source="g6kpnb7D7X9jS-AZbIGW-51" target="qbday1i0iJEvqqkl0eBC-49" edge="1">
          <mxGeometry relative="1" as="geometry" />
        </mxCell>
        <mxCell id="g6kpnb7D7X9jS-AZbIGW-51" value="RDS Subnet group" style="fillColor=none;strokeColor=#DD3522;verticalAlign=top;fontStyle=0;fontColor=#DD3522;whiteSpace=wrap;html=1;" parent="qbday1i0iJEvqqkl0eBC-1" vertex="1">
          <mxGeometry x="234.5" y="670" width="130" height="30" as="geometry" />
        </mxCell>
        <mxCell id="yRWJ_-X60Az36Gfh8IAf-1" value="Amazon EC2&lt;br&gt;Bastion" style="sketch=0;outlineConnect=0;fontColor=#232F3E;gradientColor=none;strokeColor=#ffffff;fillColor=#232F3E;dashed=0;verticalLabelPosition=middle;verticalAlign=bottom;align=center;html=1;whiteSpace=wrap;fontSize=10;fontStyle=1;spacing=3;shape=mxgraph.aws4.productIcon;prIcon=mxgraph.aws4.ec2;" parent="qbday1i0iJEvqqkl0eBC-1" vertex="1">
          <mxGeometry x="39.5" y="140" width="80" height="120" as="geometry" />
        </mxCell>
        <mxCell id="yRWJ_-X60Az36Gfh8IAf-3" style="edgeStyle=orthogonalEdgeStyle;rounded=0;orthogonalLoop=1;jettySize=auto;html=1;entryX=0.25;entryY=0;entryDx=0;entryDy=0;startArrow=classic;startFill=1;" parent="qbday1i0iJEvqqkl0eBC-1" source="yRWJ_-X60Az36Gfh8IAf-2" target="g6kpnb7D7X9jS-AZbIGW-46" edge="1">
          <mxGeometry relative="1" as="geometry" />
        </mxCell>
        <mxCell id="yRWJ_-X60Az36Gfh8IAf-2" value="Security group&lt;br&gt;Bastion" style="fillColor=none;strokeColor=#DD3522;verticalAlign=top;fontStyle=0;fontColor=#DD3522;whiteSpace=wrap;html=1;" parent="qbday1i0iJEvqqkl0eBC-1" vertex="1">
          <mxGeometry x="45.5" y="270" width="130" height="40" as="geometry" />
        </mxCell>
        <mxCell id="2n7tNxbJqgsIA7ErDQBW-1" value="Amazon Glacier" style="sketch=0;outlineConnect=0;fontColor=#232F3E;gradientColor=none;strokeColor=#ffffff;fillColor=#232F3E;dashed=0;verticalLabelPosition=middle;verticalAlign=bottom;align=center;html=1;whiteSpace=wrap;fontSize=10;fontStyle=1;spacing=3;shape=mxgraph.aws4.productIcon;prIcon=mxgraph.aws4.glacier;" parent="qbday1i0iJEvqqkl0eBC-1" vertex="1">
          <mxGeometry x="571" y="760" width="80" height="100" as="geometry" />
        </mxCell>
        <mxCell id="GcxoR1iasbJ3VfstspqE-11" style="edgeStyle=orthogonalEdgeStyle;rounded=0;orthogonalLoop=1;jettySize=auto;html=1;entryX=0;entryY=0.5;entryDx=0;entryDy=0;" edge="1" parent="qbday1i0iJEvqqkl0eBC-1" source="GcxoR1iasbJ3VfstspqE-2" target="GcxoR1iasbJ3VfstspqE-7">
          <mxGeometry relative="1" as="geometry" />
        </mxCell>
        <mxCell id="GcxoR1iasbJ3VfstspqE-2" value="SQS processor" style="sketch=0;points=[[0,0,0],[0.25,0,0],[0.5,0,0],[0.75,0,0],[1,0,0],[0,1,0],[0.25,1,0],[0.5,1,0],[0.75,1,0],[1,1,0],[0,0.25,0],[0,0.5,0],[0,0.75,0],[1,0.25,0],[1,0.5,0],[1,0.75,0]];outlineConnect=0;fontColor=#232F3E;fillColor=#ED7100;strokeColor=#ffffff;dashed=0;verticalLabelPosition=bottom;verticalAlign=top;align=center;html=1;fontSize=12;fontStyle=0;aspect=fixed;shape=mxgraph.aws4.resourceIcon;resIcon=mxgraph.aws4.lambda;" vertex="1" parent="qbday1i0iJEvqqkl0eBC-1">
          <mxGeometry x="71.5" y="840" width="78" height="78" as="geometry" />
        </mxCell>
        <mxCell id="GcxoR1iasbJ3VfstspqE-3" value="Amazon CloudWatch" style="sketch=0;outlineConnect=0;fontColor=#232F3E;gradientColor=none;strokeColor=#ffffff;fillColor=#232F3E;dashed=0;verticalLabelPosition=middle;verticalAlign=bottom;align=center;html=1;whiteSpace=wrap;fontSize=10;fontStyle=1;spacing=3;shape=mxgraph.aws4.productIcon;prIcon=mxgraph.aws4.cloudwatch;" vertex="1" parent="qbday1i0iJEvqqkl0eBC-1">
          <mxGeometry x="249.5" y="720" width="80" height="110" as="geometry" />
        </mxCell>
        <mxCell id="GcxoR1iasbJ3VfstspqE-10" style="edgeStyle=orthogonalEdgeStyle;rounded=0;orthogonalLoop=1;jettySize=auto;html=1;" edge="1" parent="qbday1i0iJEvqqkl0eBC-1" source="GcxoR1iasbJ3VfstspqE-7" target="GcxoR1iasbJ3VfstspqE-3">
          <mxGeometry relative="1" as="geometry" />
        </mxCell>
        <mxCell id="GcxoR1iasbJ3VfstspqE-7" value="Lambda Subnet group" style="fillColor=none;strokeColor=#DD3522;verticalAlign=top;fontStyle=0;fontColor=#DD3522;whiteSpace=wrap;html=1;" vertex="1" parent="qbday1i0iJEvqqkl0eBC-1">
          <mxGeometry x="224.5" y="864" width="130" height="30" as="geometry" />
        </mxCell>
        <mxCell id="GcxoR1iasbJ3VfstspqE-8" style="edgeStyle=orthogonalEdgeStyle;rounded=0;orthogonalLoop=1;jettySize=auto;html=1;entryX=0;entryY=0.5;entryDx=0;entryDy=0;" edge="1" parent="qbday1i0iJEvqqkl0eBC-1" source="GcxoR1iasbJ3VfstspqE-1" target="GcxoR1iasbJ3VfstspqE-7">
          <mxGeometry relative="1" as="geometry" />
        </mxCell>
        <mxCell id="GcxoR1iasbJ3VfstspqE-12" value="Amazon SQS" style="sketch=0;outlineConnect=0;fontColor=#232F3E;gradientColor=none;strokeColor=#ffffff;fillColor=#232F3E;dashed=0;verticalLabelPosition=middle;verticalAlign=bottom;align=center;html=1;whiteSpace=wrap;fontSize=10;fontStyle=1;spacing=3;shape=mxgraph.aws4.productIcon;prIcon=mxgraph.aws4.sqs;" vertex="1" parent="qbday1i0iJEvqqkl0eBC-1">
          <mxGeometry x="511" y="880" width="80" height="100" as="geometry" />
        </mxCell>
      </root>
    </mxGraphModel>
  </diagram>
</mxfile>
